<svg width="246" height="74" fill="none" xmlns="http://www.w3.org/2000/svg"><path d="M30.68 17.626c.301 0 .301-.453 0-.453-.303 0-.303.453 0 .453zm68.875 3.34c0-2.392-.69-4.288-2.07-5.689-1.36-1.4-3.301-2.09-5.803-2.09h-4.724v16.915h3.624c2.567 0 4.702-.82 6.406-2.457 1.704-1.637 2.567-3.857 2.567-6.68zm57.767 29.432h-16.415v-2.003c.453-.044 1.1-.108 1.941-.173.841-.064 1.424-.172 1.747-.323.561-.215.971-.56 1.23-1.013.259-.452.388-1.034.388-1.766V31.07h-18.551v13.747c0 .646.108 1.207.324 1.637.215.453.625.84 1.272 1.164.324.172.885.323 1.683.495.82.173 1.445.26 1.92.28V50.4h-16.416v-2.004c.453-.044 1.1-.108 1.942-.173.841-.064 1.423-.172 1.747-.323.561-.215.97-.56 1.229-1.013.259-.452.389-1.034.389-1.766V16.657a3.64 3.64 0 00-.367-1.617c-.237-.473-.647-.861-1.251-1.163-.496-.237-1.1-.453-1.812-.646-.734-.173-1.359-.302-1.877-.324v-2.003h16.416v2.003c-.518.022-1.165.108-1.92.237a19.43 19.43 0 00-1.683.41c-.625.237-1.057.603-1.272 1.12a4.316 4.316 0 00-.324 1.68v12.26h18.551V16.658c0-.604-.129-1.143-.367-1.638-.237-.496-.647-.862-1.251-1.142-.496-.237-1.121-.453-1.833-.646-.712-.173-1.316-.302-1.834-.324v-2.003h16.416v2.003c-.518.022-1.165.108-1.92.237a19.43 19.43 0 00-1.683.41c-.625.237-1.057.603-1.272 1.12a4.425 4.425 0 00-.324 1.702v28.442c0 .646.108 1.207.324 1.637.215.453.625.84 1.272 1.164.324.172.885.323 1.683.495.819.173 1.445.26 1.92.28V50.4h-.022zm26.748-29.432c0-2.392-.69-4.288-2.071-5.689-1.38-1.4-3.322-2.09-5.802-2.09h-4.724v16.915h3.645c2.567 0 4.702-.82 6.407-2.457 1.682-1.637 2.545-3.857 2.545-6.68zm14.668 29.432h-10.656c-2.351-3.706-4.487-6.894-6.385-9.566a210.889 210.889 0 00-6.191-8.317h-4.033v12.518c0 .647.107 1.207.302 1.703.215.495.647.861 1.315 1.12.324.13.928.258 1.748.366.819.108 1.553.173 2.114.194v2.004h-16.718v-2.004c.453-.043 1.1-.107 1.941-.194.842-.108 1.446-.215 1.769-.366.561-.237.949-.582 1.208-1.056.259-.474.389-1.056.389-1.767V16.484c0-.646-.087-1.228-.281-1.724-.194-.495-.625-.883-1.316-1.142a12.939 12.939 0 00-1.812-.452 12.26 12.26 0 00-1.898-.259v-2.003h18.249c1.683 0 3.236.172 4.703.517 1.466.344 2.804.883 3.99 1.659 1.165.732 2.071 1.702 2.761 2.909.69 1.185 1.036 2.65 1.036 4.33 0 1.53-.238 2.866-.691 4.03a8.65 8.65 0 01-2.07 3.038c-.842.797-1.856 1.486-3.02 2.068a23.203 23.203 0 01-3.862 1.487 508 508 0 014.854 6.507c1.294 1.767 2.869 3.9 4.745 6.42.82 1.121 1.554 1.94 2.222 2.457.647.539 1.316.97 1.963 1.293.475.237 1.1.43 1.812.56.712.13 1.316.194 1.812.216v2.003zm26.187-18.142c.82.927 1.445 1.94 1.855 3.06.389 1.099.604 2.392.604 3.857 0 3.49-1.294 6.356-3.882 8.618-2.589 2.284-5.781 3.405-9.6 3.405-1.768 0-3.537-.28-5.284-.82-1.769-.56-3.301-1.206-4.573-2.003l-1.208 2.026h-2.244l-.388-13.51h2.243c.475 1.68 1.014 3.189 1.64 4.524a15.723 15.723 0 002.459 3.771 11.13 11.13 0 003.386 2.629c1.295.646 2.783.97 4.509.97 1.294 0 2.394-.173 3.365-.496a5.989 5.989 0 002.329-1.422 5.698 5.698 0 001.316-2.155c.302-.819.432-1.788.432-2.866 0-1.572-.453-3.038-1.338-4.417-.884-1.357-2.221-2.391-3.969-3.102-1.208-.496-2.588-1.013-4.141-1.616-1.553-.582-2.891-1.12-4.034-1.66-2.222-1.012-3.948-2.326-5.177-3.942-1.23-1.616-1.855-3.75-1.855-6.357 0-1.508.302-2.887.927-4.201.604-1.293 1.489-2.457 2.61-3.49a12.047 12.047 0 013.818-2.263 13.237 13.237 0 014.595-.819c1.812 0 3.451.28 4.875.84 1.445.56 2.74 1.207 3.926 1.961l1.143-1.896h2.222l.216 13.1h-2.244a48.148 48.148 0 00-1.38-4.33c-.518-1.38-1.165-2.63-1.985-3.75a9.11 9.11 0 00-2.933-2.585c-1.144-.647-2.567-.97-4.228-.97-1.769 0-3.257.56-4.509 1.702-1.251 1.12-1.855 2.521-1.855 4.18 0 1.703.41 3.103 1.208 4.245.798 1.12 1.942 2.047 3.473 2.758a40.712 40.712 0 003.991 1.68c1.316.475 2.567.992 3.796 1.509a32.043 32.043 0 013.214 1.637c1.014.668 1.92 1.38 2.675 2.198zM114.202 50.398h-10.635c-2.351-3.706-4.486-6.894-6.385-9.566a211.382 211.382 0 00-6.19-8.317h-4.056v12.518c0 .647.108 1.207.302 1.703.216.495.647.861 1.316 1.12.324.13.928.258 1.769.366.82.108 1.531.173 2.114.194v2.004h-16.74v-2.004c.454-.043 1.1-.107 1.942-.194.841-.108 1.445-.215 1.769-.366.56-.237.95-.582 1.208-1.056.259-.474.367-1.056.367-1.767V16.484c0-.646-.087-1.228-.28-1.724-.195-.495-.626-.883-1.317-1.142a12.96 12.96 0 00-1.812-.452 11.398 11.398 0 00-1.876-.259v-2.003h18.249c1.682 0 3.235.172 4.702.517 1.467.344 2.804.883 3.991 1.659 1.165.732 2.071 1.702 2.761 2.909.69 1.185 1.035 2.65 1.035 4.33 0 1.53-.237 2.866-.69 4.03-.475 1.163-1.143 2.176-2.071 3.038-.841.797-1.833 1.486-3.02 2.068a23.204 23.204 0 01-3.86 1.487 524.212 524.212 0 014.853 6.507 990.36 990.36 0 004.745 6.42c.82 1.121 1.553 1.94 2.222 2.457.647.539 1.316.97 1.963 1.293.496.237 1.1.43 1.812.56.712.13 1.316.194 1.812.216v2.003zM62.95 63.347c0-.581-.173-1.055-.497-1.379-.345-.344-.82-.517-1.424-.517h-1.164v4.137h.884c.626 0 1.143-.194 1.575-.603.41-.41.625-.948.625-1.638zm10.742 7.068l-2.179.15-.108-.086v-.862h-.022l-.366.367a2.67 2.67 0 01-.475.344c-.194.13-.41.216-.604.28-.194.065-.453.087-.82.087-.582 0-1.035-.194-1.358-.582-.302-.388-.475-.948-.475-1.68v-3.211c0-.172-.022-.302-.086-.41a1.134 1.134 0 00-.26-.301 2.097 2.097 0 00-.301-.13 2.373 2.373 0 00-.388-.043v-.452l2.243-.172.108.086v4.654c0 .474.108.84.323 1.099.216.237.475.366.777.366.259 0 .475-.043.669-.108a2.14 2.14 0 00.496-.28 1.45 1.45 0 00.323-.301c.087-.108.173-.216.216-.302v-3.814c0-.15-.022-.28-.086-.388a.878.878 0 00-.259-.301c-.086-.065-.216-.087-.367-.108-.15 0-.345-.022-.539-.022v-.452l2.438-.173.107.087v5.322c0 .15.044.28.108.388.065.107.151.194.26.28a.606.606 0 00.28.086c.107.021.237.021.366.021v.56h-.021zm5.522-3.146c.194.172.323.345.431.56.108.216.151.474.151.776 0 .625-.237 1.12-.712 1.53-.474.387-1.078.581-1.812.581-.388 0-.755-.064-1.078-.215a4.753 4.753 0 01-.712-.388l-.13.453h-.517l-.065-2.328h.475c.043.173.108.388.237.625.108.237.259.453.431.647.173.194.389.366.648.495.237.13.517.216.84.216.432 0 .777-.108 1.015-.302.237-.194.366-.474.366-.84 0-.194-.043-.366-.108-.496a1.02 1.02 0 00-.323-.366 2.259 2.259 0 00-.56-.28 4.89 4.89 0 00-.734-.237 7.433 7.433 0 01-.712-.259 2.868 2.868 0 01-.669-.388 2.155 2.155 0 01-.496-.581 1.701 1.701 0 01-.194-.82c0-.538.194-1.012.604-1.4.41-.387.949-.581 1.64-.581.258 0 .538.043.819.107.28.065.496.151.669.237l.15-.345h.497l.108 2.155h-.475a2.055 2.055 0 00-.626-1.163 1.612 1.612 0 00-1.164-.453c-.367 0-.669.086-.885.28-.215.194-.323.41-.323.668 0 .194.043.367.108.517.064.13.172.259.323.345.13.086.302.172.518.259.216.086.453.172.776.28.302.086.583.215.842.323.237.086.474.237.647.388zm6.018 0c.194.172.324.345.431.56.108.216.151.474.151.776 0 .625-.237 1.12-.69 1.53-.474.387-1.078.581-1.812.581-.388 0-.755-.064-1.078-.215a4.753 4.753 0 01-.712-.388l-.13.453h-.517l-.065-2.328h.475c.043.173.107.388.237.625s.259.453.431.647c.173.194.388.366.647.495.238.13.518.216.842.216.431 0 .776-.108 1.014-.302.237-.194.366-.474.366-.84 0-.194-.043-.366-.108-.496-.064-.13-.194-.258-.323-.366a2.26 2.26 0 00-.561-.28 4.885 4.885 0 00-.733-.237 7.422 7.422 0 01-.712-.259 2.864 2.864 0 01-.669-.388 2.155 2.155 0 01-.496-.581 1.7 1.7 0 01-.194-.82c0-.538.194-1.012.604-1.4.41-.387.949-.581 1.64-.581.258 0 .538.043.819.107.28.065.496.151.668.237l.151-.345h.497l.108 2.155h-.475a2.055 2.055 0 00-.626-1.163 1.597 1.597 0 00-1.143-.453c-.367 0-.669.086-.884.28-.216.194-.324.41-.324.668 0 .194.043.367.108.517a.82.82 0 00.324.345c.129.086.302.172.517.259.216.086.453.172.755.28.302.086.583.215.841.323.238.086.454.237.626.388zm4.012-6.163c0 .26-.086.496-.259.69a.808.808 0 01-.625.28.765.765 0 01-.604-.28c-.173-.194-.259-.388-.259-.625 0-.258.086-.474.259-.646a.765.765 0 01.604-.28c.259 0 .474.086.625.258.173.151.26.367.26.603zm.863 9.438H86.85v-.453c.108 0 .216-.021.323-.021a1.3 1.3 0 00.302-.043.476.476 0 00.28-.216.736.736 0 00.087-.388v-4.136a.89.89 0 00-.108-.41.92.92 0 00-.28-.301c-.086-.065-.216-.108-.367-.151a1.902 1.902 0 00-.453-.065v-.452l2.373-.151.086.086v5.473c0 .15.022.28.087.388a.615.615 0 00.28.237c.108.043.194.064.302.107.086.022.194.043.323.043v.453h.022zm4.81-3.728c-.388.108-.733.237-1.013.324a5.75 5.75 0 00-.82.409c-.237.15-.41.345-.54.56a1.46 1.46 0 00-.194.754c0 .367.108.647.302.82.195.171.453.258.755.258.324 0 .604-.087.863-.237a2.62 2.62 0 00.626-.56l.021-2.328zm2.373 3.62c-.216.065-.388.13-.56.194a2.174 2.174 0 01-.54.065c-.367 0-.647-.086-.841-.259-.216-.172-.345-.41-.41-.732h-.043a3.739 3.739 0 01-.95.754c-.344.172-.754.258-1.229.258-.517 0-.927-.15-1.251-.474-.323-.301-.496-.71-.496-1.206 0-.259.043-.496.108-.69.064-.215.172-.388.323-.56a1.6 1.6 0 01.453-.366c.195-.108.367-.194.518-.259.194-.086.626-.215 1.251-.43.626-.216 1.057-.367 1.273-.496v-.668c0-.065-.022-.173-.043-.345a1.257 1.257 0 00-.173-.474 1.223 1.223 0 00-.388-.431c-.173-.13-.41-.194-.712-.194-.216 0-.41.043-.582.108a1.07 1.07 0 00-.367.215c0 .086.021.216.065.388.043.172.064.345.064.496a.56.56 0 01-.215.43c-.151.13-.346.194-.604.194a.585.585 0 01-.496-.236.942.942 0 01.043-1.142c.15-.194.345-.367.582-.518a2.89 2.89 0 01.733-.323c.28-.086.583-.13.863-.13.389 0 .712.023 1.014.087.28.043.54.172.777.345.237.172.41.388.539.69.13.28.172.667.172 1.12 0 .646 0 1.228-.021 1.724-.022.495-.022 1.055-.022 1.637 0 .172.022.323.087.431a.655.655 0 00.28.258c.065.044.173.065.324.065h.453v.474h.021zm8.089.108H102.1v-.453c.108 0 .216-.021.346-.021.129 0 .237-.022.302-.043a.477.477 0 00.28-.216.734.734 0 00.086-.388v-3.469c0-.473-.108-.84-.345-1.098-.237-.259-.496-.388-.82-.388a2.16 2.16 0 00-.668.108 3.165 3.165 0 00-.539.28 1.878 1.878 0 00-.367.344c-.086.13-.151.216-.194.302v3.878c0 .151.043.28.108.388a.612.612 0 00.28.237c.086.043.194.086.302.108.108.022.237.043.345.043v.453h-3.3v-.453c.108 0 .215-.022.323-.022a.956.956 0 00.28-.043.476.476 0 00.281-.215.737.737 0 00.086-.388v-4.137a.756.756 0 00-.107-.43.804.804 0 00-.28-.324c-.087-.043-.195-.086-.303-.13-.13-.02-.237-.042-.388-.042v-.453l2.243-.15.087.086v.926h.043c.108-.108.237-.237.41-.388.172-.15.323-.28.474-.366a3.15 3.15 0 01.604-.28c.237-.065.496-.108.777-.108.647 0 1.121.194 1.445.603.302.41.474.948.474 1.595v3.512c0 .172.022.28.087.388a.612.612 0 00.28.237c.108.043.194.086.281.086.086.022.194.043.323.043v.388h.043zm14.388 0h-4.012v-.496c.108 0 .259-.021.474-.043.216-.021.346-.043.432-.086.129-.065.237-.13.302-.237.065-.108.086-.258.086-.43v-3.448h-4.53v3.36c0 .152.022.303.087.41.043.108.151.194.302.28.064.043.215.087.409.13.194.043.345.064.475.064v.496h-4.012v-.496c.108 0 .259-.021.474-.043.216-.021.345-.043.432-.086.129-.065.237-.13.302-.237.064-.108.086-.258.086-.43V62.27c0-.15-.022-.28-.086-.388a.639.639 0 00-.302-.28 2.245 2.245 0 00-.453-.15c-.173-.044-.324-.065-.453-.087v-.495h4.012v.495c-.13 0-.281.022-.475.065-.194.043-.323.064-.409.107-.151.065-.259.151-.302.28a1.25 1.25 0 00-.087.41v2.995h4.53v-2.93a.87.87 0 00-.086-.41.553.553 0 00-.302-.28 2.245 2.245 0 00-.453-.15c-.173-.044-.324-.065-.453-.087v-.495h4.012v.495c-.129 0-.28.022-.475.065-.194.043-.323.064-.409.107-.151.065-.259.151-.302.28-.043.13-.087.26-.087.41v6.96c0 .15.022.301.087.409.043.108.151.194.302.28.086.043.215.086.409.13.195.042.346.064.475.064v.474zm4.961-3.728c-.388.108-.733.237-1.013.324-.302.107-.561.258-.82.409a1.66 1.66 0 00-.539.56 1.45 1.45 0 00-.195.754c0 .367.108.647.302.82.195.171.453.258.755.258.324 0 .604-.087.863-.237a2.6 2.6 0 00.626-.56l.021-2.328zm2.373 3.62c-.216.065-.41.13-.561.194a2.17 2.17 0 01-.539.065c-.367 0-.647-.086-.863-.259-.215-.172-.345-.41-.41-.732h-.043c-.302.323-.604.581-.949.754-.345.172-.755.258-1.229.258-.497 0-.928-.15-1.252-.474-.302-.301-.474-.71-.474-1.206 0-.259.043-.496.108-.69.064-.215.172-.388.323-.56.108-.13.259-.259.453-.366.194-.108.367-.194.518-.259.194-.086.626-.215 1.251-.43.626-.216 1.057-.367 1.273-.496v-.668c0-.065-.022-.173-.043-.345a1.27 1.27 0 00-.173-.474 1.226 1.226 0 00-.388-.431c-.173-.13-.41-.194-.712-.194a1.641 1.641 0 00-.971.323c0 .086.022.216.065.388.043.172.065.345.065.496a.56.56 0 01-.216.43c-.151.13-.345.194-.604.194a.585.585 0 01-.496-.236.942.942 0 01.043-1.142 2.28 2.28 0 01.582-.518c.195-.129.453-.237.755-.323.281-.086.583-.13.863-.13.389 0 .712.023.993.087.28.043.539.172.776.345.237.172.41.388.518.69.129.28.194.667.194 1.12 0 .646 0 1.228-.022 1.724-.021.495-.021 1.055-.021 1.637 0 .172.021.323.086.431a.658.658 0 00.28.258c.065.044.173.065.324.065h.453v.474h.043zm3.322-9.33c0 .26-.086.496-.259.69a.806.806 0 01-.625.28.763.763 0 01-.604-.28c-.173-.194-.259-.388-.259-.625 0-.258.086-.474.259-.646a.763.763 0 01.604-.28.88.88 0 01.647.258.847.847 0 01.237.603zm.841 9.438h-3.257v-.453c.108 0 .216-.021.324-.021.108 0 .215-.022.302-.043a.477.477 0 00.28-.216.734.734 0 00.086-.388v-4.136c0-.151-.043-.28-.086-.41a.926.926 0 00-.28-.301c-.087-.065-.216-.108-.367-.151a1.91 1.91 0 00-.453-.065v-.452l2.373-.151.086.086v5.473c0 .15.022.28.086.388a.615.615 0 00.281.237c.108.043.194.064.302.107a1.3 1.3 0 00.323.043v.453zm5.975-5.84a1.1 1.1 0 01-.172.604.582.582 0 01-.518.28c-.259 0-.453-.064-.582-.194a.607.607 0 01-.194-.43c0-.108 0-.195.021-.28.022-.087.022-.173.043-.238-.215 0-.453.086-.755.259-.28.172-.539.41-.733.732v3.9c0 .173.022.28.086.388a.615.615 0 00.281.237c.108.043.259.086.431.108.173.021.345.043.475.043v.453h-3.56v-.453c.108 0 .216-.022.324-.022a.949.949 0 00.28-.043.477.477 0 00.281-.215.735.735 0 00.086-.388v-4.137c0-.15-.043-.28-.086-.41a1.018 1.018 0 00-.281-.322c-.086-.044-.194-.087-.302-.13-.129-.021-.237-.043-.388-.043v-.452l2.244-.151.086.086v.948h.043c.28-.366.604-.646.949-.84.345-.194.669-.28.949-.28.281 0 .518.086.69.28.216.15.302.388.302.71zm9.966-1.357c0-.581-.172-1.055-.517-1.379-.346-.344-.82-.517-1.424-.517h-1.165v4.137h.884c.626 0 1.144-.194 1.575-.603.432-.41.647-.948.647-1.638zm3.581 7.197h-2.61a63.61 63.61 0 00-1.575-2.349 53.094 53.094 0 00-1.51-2.025h-.992v3.06c0 .15.022.301.086.409.043.13.151.215.324.28.086.022.237.065.431.086.194.022.367.043.518.043v.496h-4.098v-.496c.107 0 .258-.021.474-.043.216-.021.345-.043.431-.086a.71.71 0 00.302-.258c.065-.108.087-.26.087-.431v-6.982c0-.15-.022-.301-.065-.43-.043-.13-.151-.216-.324-.28a1.73 1.73 0 00-.453-.108 2.062 2.062 0 00-.474-.065v-.495h4.465c.41 0 .798.043 1.143.129.367.086.691.215.971.41.28.172.518.409.669.71.172.302.259.647.259 1.056a2.8 2.8 0 01-.173.991c-.108.28-.28.539-.518.754a2.583 2.583 0 01-.733.496c-.28.15-.604.258-.949.366.474.625.863 1.164 1.186 1.595.324.43.712.948 1.165 1.573.194.28.388.474.539.603.173.129.324.237.475.323.129.065.28.108.453.13.172.02.323.042.453.042v.496h.043zm4.444-4.137c0-.259-.022-.517-.065-.819-.043-.301-.108-.538-.216-.732a1.268 1.268 0 00-.431-.517c-.173-.13-.41-.194-.712-.194-.475 0-.884.194-1.186.603-.324.388-.497.948-.518 1.659h3.128zm1.51 2.564c-.281.539-.669.97-1.122 1.271-.475.323-1.014.474-1.64.474-.539 0-1.013-.086-1.423-.28a2.829 2.829 0 01-1.014-.776 3.353 3.353 0 01-.582-1.141 4.716 4.716 0 01-.195-1.38c0-.43.065-.861.216-1.292.13-.431.345-.797.604-1.142a2.87 2.87 0 01.971-.776 2.86 2.86 0 011.294-.302c.496 0 .906.087 1.251.237.345.151.626.367.841.625.216.259.367.56.475.905a3.7 3.7 0 01.151 1.12v.453h-4.465c0 .431.043.84.129 1.207.087.366.216.668.41.948.173.258.41.474.69.625.281.15.626.237 1.036.237.41 0 .755-.087 1.035-.28.302-.194.583-.517.863-1.013l.475.28zm5.435-1.702c.195.172.324.345.432.56.108.216.151.474.151.776 0 .625-.237 1.12-.69 1.53-.475.387-1.079.581-1.812.581a2.54 2.54 0 01-1.079-.215 4.817 4.817 0 01-.712-.388l-.129.453h-.518l-.065-2.328h.475c.043.173.108.388.237.625.13.237.259.453.432.647.172.194.388.366.625.495.259.13.539.216.841.216.432 0 .777-.108 1.014-.302.238-.194.367-.474.367-.84 0-.194-.043-.366-.108-.496a1.716 1.716 0 00-.323-.366 2.266 2.266 0 00-.561-.28 4.887 4.887 0 00-.734-.237 7.403 7.403 0 01-.711-.259 2.862 2.862 0 01-.669-.388 2.15 2.15 0 01-.496-.581 1.694 1.694 0 01-.194-.82c0-.538.215-1.012.604-1.4.409-.387.949-.581 1.639-.581.259 0 .539.043.82.107.28.065.496.151.668.237l.151-.345h.496l.108 2.155h-.474a2.057 2.057 0 00-.626-1.163 1.647 1.647 0 00-1.165-.453c-.366 0-.668.086-.884.28-.216.194-.324.41-.324.668 0 .194.044.367.108.517a.82.82 0 00.324.345c.129.086.302.172.517.259.216.086.453.172.777.28.302.086.582.215.841.323.259.086.475.237.647.388zm6.062-.862c0-.259-.022-.517-.065-.819-.043-.301-.108-.538-.216-.732a1.445 1.445 0 00-.431-.517c-.173-.13-.41-.194-.712-.194-.474 0-.884.194-1.186.603-.324.388-.496.948-.518 1.659h3.128zm1.51 2.564c-.281.539-.669.97-1.143 1.271-.475.323-1.014.474-1.64.474-.539 0-1.014-.086-1.424-.28a3.03 3.03 0 01-1.013-.776 3.373 3.373 0 01-.583-1.141 4.75 4.75 0 01-.194-1.38c0-.43.065-.861.216-1.292.129-.431.345-.797.604-1.142a2.87 2.87 0 01.97-.776c.389-.194.82-.302 1.295-.302.496 0 .906.087 1.251.237.345.151.625.367.841.625.216.259.367.56.475.905a3.7 3.7 0 01.151 1.12v.453h-4.465c0 .431.043.84.129 1.207.086.366.216.668.388.948.173.258.41.474.69.625.281.15.626.237 1.014.237.41 0 .755-.087 1.057-.28.302-.194.583-.517.863-1.013l.518.28zm4.767-2.155c-.388.108-.733.237-1.014.324-.302.107-.561.258-.82.409a1.67 1.67 0 00-.539.56 1.458 1.458 0 00-.194.754c0 .367.108.647.302.82.194.171.453.258.755.258.324 0 .604-.087.863-.237.237-.151.453-.345.625-.56l.022-2.328zm2.373 3.62c-.216.065-.388.13-.561.194a2.054 2.054 0 01-.539.065c-.367 0-.647-.086-.863-.259-.216-.172-.345-.41-.41-.732h-.043c-.302.323-.604.581-.949.754-.345.172-.755.258-1.23.258-.496 0-.927-.15-1.251-.474-.323-.301-.496-.71-.496-1.206 0-.259.043-.496.108-.69a1.47 1.47 0 01.323-.56c.108-.13.259-.259.453-.366.194-.108.367-.194.518-.259.194-.086.626-.215 1.251-.43.626-.216 1.057-.367 1.273-.496v-.668c0-.065-.022-.173-.043-.345a1.27 1.27 0 00-.173-.474 1.226 1.226 0 00-.388-.431c-.173-.13-.41-.194-.712-.194a1.641 1.641 0 00-.971.323c0 .086.022.216.065.388.043.172.065.345.065.496a.56.56 0 01-.216.43c-.151.13-.345.194-.604.194-.237 0-.388-.086-.496-.236a.924.924 0 01-.151-.54c0-.215.065-.409.216-.602a2.28 2.28 0 01.582-.518c.216-.129.453-.237.755-.323.28-.086.582-.13.841-.13.389 0 .712.023 1.014.087.281.043.539.172.777.345.237.172.41.388.539.69.129.28.173.667.173 1.12 0 .646 0 1.228-.022 1.724-.022.495-.022 1.055-.022 1.637 0 .172.022.323.087.431a.652.652 0 00.28.258c.065.044.173.065.324.065h.453v.474h.043zm6.04-5.731a1.1 1.1 0 01-.173.603.58.58 0 01-.518.28c-.258 0-.453-.064-.582-.194a.61.61 0 01-.194-.43c0-.108 0-.195.021-.28.022-.087.022-.173.044-.238-.216 0-.475.086-.755.259-.281.172-.518.41-.734.732v3.9c0 .173.022.28.086.388a.615.615 0 00.281.237c.108.043.259.086.431.108.173.021.345.043.475.043v.453h-3.559v-.453c.107 0 .215-.022.323-.022a.962.962 0 00.281-.043.478.478 0 00.28-.215.735.735 0 00.086-.388v-4.137a.87.87 0 00-.086-.41.81.81 0 00-.28-.322c-.087-.044-.195-.087-.302-.13-.13-.021-.238-.043-.389-.043v-.452l2.244-.151.086.086v.948h.043a3.15 3.15 0 01.949-.84c.345-.194.669-.28.949-.28.281 0 .518.086.691.28.172.194.302.388.302.71zm3.451 6.033c-.971 0-1.747-.323-2.287-.97-.56-.646-.819-1.508-.819-2.607 0-.474.086-.905.215-1.336a3.88 3.88 0 01.648-1.12 3.03 3.03 0 011.013-.776c.41-.194.842-.302 1.316-.302.669 0 1.187.151 1.618.474.41.324.626.755.626 1.293a1.1 1.1 0 01-.173.604c-.108.172-.302.258-.539.258-.281 0-.475-.064-.626-.215a.568.568 0 01-.215-.453c0-.194.021-.41.086-.625a1.68 1.68 0 00.086-.474.54.54 0 00-.367-.28 2.124 2.124 0 00-.517-.064c-.216 0-.432.043-.626.15-.194.087-.388.259-.582.517-.173.237-.302.54-.41.927-.108.388-.151.84-.151 1.379 0 .84.194 1.53.561 2.069.366.538.863.797 1.467.797.453 0 .819-.108 1.1-.323.302-.216.582-.54.841-.97l.431.28c-.302.539-.69.97-1.186 1.271-.475.323-.971.496-1.51.496zm10.548-.194h-3.3v-.453c.108 0 .216-.021.345-.021.129 0 .237-.022.323-.043a.477.477 0 00.281-.216.734.734 0 00.086-.388v-3.469c0-.473-.108-.84-.345-1.098a1.032 1.032 0 00-.82-.388 2.28 2.28 0 00-.668.108c-.194.086-.389.172-.54.28-.151.107-.28.237-.345.344-.086.108-.151.216-.194.28v3.879c0 .15.022.28.086.388a.615.615 0 00.281.237c.108.043.194.086.302.107.108.022.237.044.345.044v.452h-3.3v-.453c.107 0 .215-.021.323-.021.108-.022.216-.022.281-.043a.477.477 0 00.28-.216.734.734 0 00.086-.387v-7.822c0-.15-.043-.302-.108-.474-.064-.15-.151-.28-.28-.345-.086-.064-.216-.107-.431-.129-.216-.021-.367-.043-.497-.043v-.43l2.481-.152.086.108v4.676h.022l.41-.41c.129-.108.28-.237.474-.366a3.15 3.15 0 01.604-.28c.238-.065.497-.108.799-.108.603 0 1.056.194 1.38.582.324.366.475.926.475 1.637v3.513c0 .172.021.28.086.387a.616.616 0 00.28.237c.108.043.194.065.281.087a1.3 1.3 0 00.323.043v.366h.108zm10.397-4.439c.194.237.345.474.453.754.108.28.151.582.151.949 0 .861-.323 1.55-.949 2.111-.625.56-1.423.84-2.351.84a4.49 4.49 0 01-1.294-.194 4.891 4.891 0 01-1.122-.495l-.302.496h-.539l-.087-3.297h.561a5.1 5.1 0 00.41 1.099c.151.345.345.646.604.926.237.28.518.474.82.647.323.15.69.237 1.1.237.324 0 .582-.043.82-.13.237-.086.431-.194.56-.344a1.25 1.25 0 00.324-.54c.065-.193.108-.43.108-.71 0-.388-.108-.754-.324-1.077-.215-.324-.539-.582-.97-.755-.302-.129-.626-.237-1.014-.387-.388-.151-.712-.28-.992-.41-.54-.237-.971-.56-1.273-.97-.302-.387-.453-.926-.453-1.55 0-.367.065-.712.216-1.035a2.44 2.44 0 01.647-.84c.259-.237.582-.431.927-.56.367-.13.734-.194 1.122-.194.453 0 .841.064 1.208.215.345.13.669.302.971.474l.28-.474h.539l.043 3.21h-.539c-.108-.366-.216-.732-.345-1.055a3.551 3.551 0 00-.475-.905 2.195 2.195 0 00-.711-.625 2.166 2.166 0 00-1.036-.237c-.431 0-.798.15-1.1.41-.302.28-.453.624-.453 1.012 0 .41.086.754.302 1.034.194.28.475.496.841.668.324.172.669.302.971.41.324.107.626.236.928.366.28.13.539.258.776.41.237.15.453.322.647.516zm6.752 1.035a4.7 4.7 0 00-.108-1.078 3.42 3.42 0 00-.302-.97c-.151-.28-.323-.516-.582-.689-.238-.172-.518-.258-.863-.258s-.647.086-.884.258a1.78 1.78 0 00-.604.711c-.151.28-.259.603-.302.948-.065.367-.087.69-.087 1.035 0 .43.043.84.108 1.206s.173.711.345.991c.151.302.345.517.583.69.237.172.517.258.862.258.561 0 1.014-.28 1.359-.819.324-.56.475-1.314.475-2.283zm1.424-.022c0 .474-.087.948-.216 1.4a3.4 3.4 0 01-.647 1.164 3.057 3.057 0 01-1.079.819 3.62 3.62 0 01-1.402.258c-.431 0-.841-.086-1.229-.237a2.787 2.787 0 01-1.036-.71 3.127 3.127 0 01-.712-1.121 3.952 3.952 0 01-.258-1.465c0-1.056.302-1.918.927-2.586.604-.668 1.402-1.013 2.394-1.013.928 0 1.726.324 2.33.949.626.646.928 1.486.928 2.542zm4.098 3.62c-.971 0-1.747-.323-2.286-.97-.561-.646-.82-1.508-.82-2.607 0-.474.065-.905.216-1.336.151-.41.366-.776.647-1.12.28-.323.604-.582 1.014-.776a3.019 3.019 0 011.315-.302c.669 0 1.208.151 1.618.474.41.324.626.755.626 1.293 0 .237-.043.431-.151.604-.108.172-.302.258-.539.258-.281 0-.475-.064-.626-.215a.57.57 0 01-.216-.453c0-.194.022-.41.087-.625.064-.215.086-.366.086-.474a.54.54 0 00-.367-.28 2.126 2.126 0 00-.518-.064c-.215 0-.431.043-.625.15-.194.087-.388.259-.583.517-.172.237-.302.54-.409.927-.108.388-.151.84-.151 1.379 0 .84.194 1.53.56 2.069.367.538.863.797 1.467.797.453 0 .82-.108 1.1-.323.302-.216.583-.54.82-.97l.432.28c-.302.539-.691.97-1.187 1.271-.496.323-.992.496-1.51.496zm5.867-9.632c0 .26-.086.496-.258.69a.81.81 0 01-.626.28.766.766 0 01-.604-.28c-.173-.194-.259-.388-.259-.625 0-.258.086-.474.259-.646a.766.766 0 01.604-.28c.259 0 .475.086.626.258a.784.784 0 01.258.603zm.842 9.438h-3.257v-.453c.107 0 .215-.021.323-.021a1.3 1.3 0 00.302-.043.474.474 0 00.28-.216.734.734 0 00.087-.388v-4.136a.891.891 0 00-.108-.41.919.919 0 00-.281-.301c-.086-.065-.215-.108-.366-.151a1.91 1.91 0 00-.453-.065v-.452l2.373-.151.086.086v5.473c0 .15.021.28.086.388.065.107.151.172.302.237.086.043.194.064.281.107.107.022.194.043.323.043v.453h.022zm5.069-4.137c0-.259-.022-.517-.065-.819-.043-.301-.108-.538-.216-.732a1.26 1.26 0 00-.431-.517c-.173-.13-.41-.194-.712-.194-.474 0-.884.194-1.186.603-.324.388-.496.948-.518 1.659h3.128zm1.51 2.564c-.281.539-.669.97-1.143 1.271-.475.323-1.014.474-1.64.474-.539 0-1.014-.086-1.424-.28a3.03 3.03 0 01-1.013-.776 3.373 3.373 0 01-.583-1.141 4.75 4.75 0 01-.194-1.38c0-.43.065-.861.216-1.292a4.12 4.12 0 01.604-1.142 2.87 2.87 0 01.97-.776c.389-.194.82-.302 1.295-.302.496 0 .906.087 1.251.237.345.151.625.367.863.625.215.259.366.56.474.905a3.7 3.7 0 01.151 1.12v.453h-4.465c0 .431.043.84.129 1.207.087.366.216.668.41.948.173.258.41.474.691.625.28.15.625.237 1.035.237.41 0 .755-.087 1.035-.28.302-.194.583-.517.863-1.013l.475.28zm5.155 1.271c-.302.13-.582.237-.841.323-.259.087-.582.13-.971.13-.561 0-.949-.13-1.186-.431-.237-.28-.345-.69-.345-1.207v-4.546h-1.208v-.646h1.251v-2.09h1.251v2.09h1.92v.646h-1.92v3.749c0 .28 0 .517.022.711.021.194.064.345.151.496a.63.63 0 00.323.301c.151.065.345.108.583.108.107 0 .28 0 .496-.022.215-.021.366-.043.474-.086v.474zm.82 2.5c0-.237.065-.41.194-.56a.584.584 0 01.475-.216c.151 0 .28.022.366.086.108.065.194.13.281.216.064.064.151.15.215.28.087.129.13.215.195.301.237-.129.496-.452.819-.948.302-.517.54-.97.691-1.357-.432-1.077-.82-2.047-1.165-2.887-.345-.84-.712-1.724-1.1-2.629-.087-.216-.238-.366-.432-.496a1.704 1.704 0 00-.604-.215v-.452h3.063v.473c-.129 0-.302.044-.496.087s-.28.107-.28.172c0 .022 0 .065.021.13l.065.193c.173.453.431 1.1.798 1.94.345.84.626 1.53.82 2.025.216-.496.41-.991.647-1.508.216-.518.475-1.12.733-1.832.022-.086.087-.215.13-.366a.971.971 0 00.086-.388c0-.13-.108-.215-.302-.323a1.845 1.845 0 00-.582-.194v-.431H246v.41c-.13.02-.324.107-.539.236a1.2 1.2 0 00-.496.582c-.54 1.25-1.014 2.392-1.446 3.426a71.775 71.775 0 01-.949 2.284c-.28.646-.539 1.142-.776 1.487a6.047 6.047 0 01-.669.84c-.216.194-.41.323-.561.388a1.505 1.505 0 01-.539.108c-.345 0-.626-.087-.841-.259-.216-.194-.324-.388-.324-.603zM66.53 70.544h-2.61a62.37 62.37 0 00-1.575-2.349 54.507 54.507 0 00-1.51-2.025h-.992v3.06c0 .15.022.301.065.409.043.13.15.215.323.28.087.022.216.065.432.086.194.022.367.043.518.043v.496h-4.099v-.496c.108 0 .259-.021.475-.043.194-.021.345-.043.431-.086a.718.718 0 00.302-.258c.065-.108.086-.26.086-.431v-6.982c0-.15-.021-.301-.064-.43-.044-.13-.151-.216-.324-.28a1.793 1.793 0 00-.431-.108 2.068 2.068 0 00-.475-.065v-.495h4.465c.41 0 .798.043 1.144.129.366.086.69.215.97.41.28.172.518.409.669.71.172.302.259.647.259 1.056a2.8 2.8 0 01-.173.991 2.18 2.18 0 01-.496.754 2.58 2.58 0 01-.733.496c-.28.15-.604.258-.95.366.475.625.863 1.164 1.187 1.595.323.43.69.948 1.165 1.573.194.28.388.474.539.603.172.129.323.237.475.323.129.065.258.108.453.13.172.02.323.042.453.042v.496h.021z" fill="#fff"/><path fill-rule="evenodd" clip-rule="evenodd" d="M18.233 25.275a20.915 20.915 0 00-1.273 9.114c.561 6.723 4.552 13.187 10.484 16.462a17.43 17.43 0 002.588 1.185l-.863 3.253c-8.498-2.93-14.776-11.333-15.552-20.62a24.268 24.268 0 011.337-10.256l3.279.862z" fill="#fff"/><path fill-rule="evenodd" clip-rule="evenodd" d="M18.169 29.476l2.566-2.197 2.244-.388.15.495-4.162 2.414.021.69-.474.107-.432-.582.087-.539zm9.577-4.115l-.41.259-.906-.97.28-.84.346-.151.56.776.13.926zm.259.668l.065-.733.345-.107.453.474-.561.41-.302-.044zm9.47-3.167l.15.581-1.51 1.595-.388.043-.517-.603.301-.668 1.963-.948zm6.45-5.064l-.109-.71-.28.042-.259.453.41.603.237-.388zm5.284 21.073l3.947 3.792.346-.15-.044-.26.453-.107-1.768-1.487.56-.237-.129-.301-3.494-1.94.129.69zM33.182 61.064c-9.858.84-19.004-3.103-25.195-9.869l.41-1.81.992-.064c3.56 4.719 8.477 8.425 14.021 10.342 3.085 1.056 6.515 1.616 9.772 1.4zM28.048.108C42.738-1.12 55.874 8.21 59.95 21.784a32.07 32.07 0 011.187 6.227l.021.323a30.578 30.578 0 01-1.316 11.442c-1.164 3.404-3.063 6.528-5.802 9.157a27.976 27.976 0 01-5.63 4.115 27.219 27.219 0 01-10.894 3.276c-8.045.668-15.229-3.513-19.564-9.804l.13-.194 1.854.043.669 1.142 1.359.926 1.359-.581 1.122 3.102 2.027 1.444.496-.108 1.165-1.314 2.524.366 1.23-.043.15-.71.195-1.035h1.143l.54.69.733.236 2.286-.086 1.877-.97.604-1.034 1.898-.086.345-.517.022-2.068-.432-.259 1.963-1.379 2.373 1.66 1.596-.302.712.603.82-.625.453-.97 1.014 2.608-.518.107-.237.69.56 1.099a19.434 19.434 0 001.705-.992l.259-1.379-.69-4.287-2.244-3.081-1.338.301.173.539-1.855-.065-.151-6.938 2.761-2.736V29.26l-.626-1.982 1.1-.367-.56-1.486.215-.496 2.287 5.15 3.624 2.004.15-.324-1.919-4.352-2.61-1.788 1.078-2.198-1.208-2.974.346-.71-.238-.345-1.66.301-.346-1.853 1.144-.905.064-.41-1.272-1.206-.971.733.216.56-.13.216h-.582l-2.352 2.154-.69 1.487.95.237-.152.625-.82-.086-.603 1.4.043.474-.151.173-.928-.388-1.078.668-.13.646-.56.388-.842.043-1.66 1.013-.109.581.194.733-1.164.862.108.819-.238.064-1.423-1.206-1.23.215-.13.259.065.582-.906.021-.69.215-1.877 1.854 1.057-2.5.065-.69-1.078-.883-1.424-.237-.604.711.28.28-1.531 1.38-.324.753.151.28-.237.302-1.186.022-.173.237.043.862-1.316.107-.992-1.357h-.302l-1.23 1.638-.237 1.163.41.625-.043.237-.388.366-1.92-2.52-.194.322.345.668-.41.324-1.208-.798-1.251.022-.345-.84-.302-.13-.82 1.228-1.618-.021c0-.28.022-.539.022-.819l1.23-.065.215-1.874-.82-1.724-.15-.021c1.272-6.27 5.004-11.722 10.202-15.234A25.55 25.55 0 0010.77 28.4c.733-7.821 4.982-14.738 11.26-19.004A27.19 27.19 0 008.009 25.318c1.057-7.822 5.457-14.695 11.82-18.983-10.461 5-17.256 16.074-16.22 28.291.301 3.62 1.38 7.132 3.019 10.342l-.151.216-.345.043-.561-.302-1.488.97a30.34 30.34 0 01-3.97-12.691C-1.331 16.333 11.18 1.53 28.049.108z" fill="#fff"/></svg>